<svg xmlns="http://www.w3.org/2000/svg" version="1.1" xmlns:xlink="http://www.w3.org/1999/xlink" width="600" height="600"><svg xmlns="http://www.w3.org/2000/svg" xmlns:xlink="http://www.w3.org/1999/xlink" width="600" zoomAndPan="magnify" viewBox="0 0 450 449.999984" height="600" preserveAspectRatio="xMidYMid meet" version="1.0"><defs><g></g><clipPath id="SvgjsClipPath1023"><path d="M 2 0 L 448 0 L 448 443 L 2 443 Z M 2 0 " clip-rule="nonzero"></path></clipPath><clipPath id="SvgjsClipPath1022"><path d="M 295.371094 11.324219 L 306.503906 15.394531 C 327.011719 22.886719 346.066406 33.875 362.824219 47.875 L 371.9375 55.484375 C 388.691406 69.480469 402.847656 86.3125 413.761719 105.21875 L 420.140625 116.265625 C 431.054688 135.167969 438.558594 155.847656 442.304688 177.351562 L 444.332031 188.972656 C 448.082031 210.484375 448.097656 232.484375 444.382812 254 L 442.253906 266.308594 C 438.542969 287.8125 431.007812 308.480469 420.011719 327.332031 L 413.890625 337.820312 C 402.890625 356.679688 388.695312 373.484375 371.9375 387.480469 L 362.824219 395.09375 C 346.066406 409.089844 327.011719 420.078125 306.503906 427.574219 L 295.371094 431.640625 C 274.863281 439.132812 253.203125 442.96875 231.375 442.96875 L 218.625 442.96875 C 196.792969 442.96875 175.132812 439.132812 154.628906 431.640625 L 143.496094 427.574219 C 122.988281 420.078125 103.929688 409.089844 87.171875 395.09375 L 78.0625 387.480469 C 61.304688 373.484375 47.109375 356.679688 36.105469 337.820312 L 29.988281 327.332031 C 18.992188 308.480469 11.457031 287.8125 7.742188 266.308594 L 5.617188 254 C 1.898438 232.484375 1.917969 210.484375 5.667969 188.972656 L 7.691406 177.351562 C 11.441406 155.847656 18.945312 135.167969 29.859375 116.265625 L 36.234375 105.21875 C 47.148438 86.3125 61.308594 69.480469 78.0625 55.484375 L 87.171875 47.875 C 103.929688 33.875 122.988281 22.886719 143.496094 15.394531 L 154.628906 11.324219 C 175.132812 3.832031 196.792969 0 218.625 0 L 231.375 0 C 253.203125 0 274.863281 3.832031 295.371094 11.324219 Z M 295.371094 11.324219 " clip-rule="nonzero"></path></clipPath><clipPath id="SvgjsClipPath1021"><path d="M 0 0 L 446 0 L 446 443 L 0 443 Z M 0 0 " clip-rule="nonzero"></path></clipPath><clipPath id="SvgjsClipPath1020"><path d="M 293.371094 11.324219 L 304.503906 15.394531 C 325.011719 22.886719 344.066406 33.875 360.824219 47.875 L 369.9375 55.484375 C 386.691406 69.480469 400.847656 86.3125 411.761719 105.21875 L 418.140625 116.265625 C 429.054688 135.167969 436.558594 155.847656 440.304688 177.351562 L 442.332031 188.972656 C 446.082031 210.484375 446.097656 232.484375 442.382812 254 L 440.253906 266.308594 C 436.542969 287.8125 429.007812 308.480469 418.011719 327.332031 L 411.890625 337.820312 C 400.890625 356.679688 386.695312 373.484375 369.9375 387.480469 L 360.824219 395.09375 C 344.066406 409.089844 325.011719 420.078125 304.503906 427.574219 L 293.371094 431.640625 C 272.863281 439.132812 251.203125 442.96875 229.375 442.96875 L 216.625 442.96875 C 194.792969 442.96875 173.132812 439.132812 152.628906 431.640625 L 141.496094 427.574219 C 120.988281 420.078125 101.929688 409.089844 85.171875 395.09375 L 76.0625 387.480469 C 59.304688 373.484375 45.109375 356.679688 34.105469 337.820312 L 27.988281 327.332031 C 16.992188 308.480469 9.457031 287.8125 5.742188 266.308594 L 3.617188 254 C -0.101562 232.484375 -0.0820312 210.484375 3.667969 188.972656 L 5.691406 177.351562 C 9.441406 155.847656 16.945312 135.167969 27.859375 116.265625 L 34.234375 105.21875 C 45.148438 86.3125 59.308594 69.480469 76.0625 55.484375 L 85.171875 47.875 C 101.929688 33.875 120.988281 22.886719 141.496094 15.394531 L 152.628906 11.324219 C 173.132812 3.832031 194.792969 0 216.625 0 L 229.375 0 C 251.203125 0 272.863281 3.832031 293.371094 11.324219 Z M 293.371094 11.324219 " clip-rule="nonzero"></path></clipPath><clipPath id="SvgjsClipPath1019"><rect x="0" width="446" y="0" height="443"></rect></clipPath><clipPath id="SvgjsClipPath1018"><path d="M 2.117188 0 L 447.1875 0 L 447.1875 442.964844 L 2.117188 442.964844 Z M 2.117188 0 " clip-rule="nonzero"></path></clipPath><clipPath id="SvgjsClipPath1017"><path d="M 295.367188 11.324219 L 306.503906 15.394531 C 327.011719 22.886719 346.066406 33.875 362.824219 47.871094 L 371.933594 55.484375 C 388.6875 69.476562 402.847656 86.3125 413.761719 105.21875 L 420.136719 116.261719 C 431.050781 135.167969 438.554688 155.84375 442.300781 177.347656 L 444.328125 188.96875 C 448.078125 210.480469 448.09375 232.476562 444.378906 253.996094 L 442.25 266.300781 C 438.539062 287.808594 431.003906 308.472656 420.007812 327.324219 L 413.886719 337.8125 C 402.886719 356.671875 388.691406 373.476562 371.933594 387.472656 L 362.824219 395.085938 C 346.066406 409.082031 327.011719 420.070312 306.503906 427.5625 L 295.367188 431.632812 C 274.863281 439.125 253.203125 442.957031 231.375 442.957031 L 218.625 442.957031 C 196.796875 442.957031 175.136719 439.125 154.632812 431.632812 L 143.496094 427.5625 C 122.988281 420.070312 103.933594 409.082031 87.175781 395.085938 L 78.066406 387.472656 C 61.308594 373.476562 47.113281 356.671875 36.113281 337.8125 L 29.992188 327.324219 C 18.996094 308.472656 11.460938 287.808594 7.75 266.300781 L 5.621094 253.996094 C 1.90625 232.476562 1.921875 210.480469 5.671875 188.96875 L 7.699219 177.347656 C 11.445312 155.84375 18.949219 135.167969 29.863281 116.261719 L 36.238281 105.21875 C 47.152344 86.3125 61.3125 69.476562 78.066406 55.484375 L 87.175781 47.871094 C 103.933594 33.875 122.988281 22.886719 143.496094 15.394531 L 154.632812 11.324219 C 175.136719 3.832031 196.796875 0 218.625 0 L 231.375 0 C 253.203125 0 274.863281 3.832031 295.367188 11.324219 Z M 295.367188 11.324219 " clip-rule="nonzero"></path></clipPath><clipPath id="SvgjsClipPath1016"><rect x="0" width="247" y="0" height="238"></rect></clipPath><clipPath id="SvgjsClipPath1015"><path d="M 0.359375 0.199219 L 167 0.199219 L 167 4 L 0.359375 4 Z M 0.359375 0.199219 " clip-rule="nonzero"></path></clipPath><clipPath id="SvgjsClipPath1014"><path d="M 14 14 L 180 14 L 180 17.71875 L 14 17.71875 Z M 14 14 " clip-rule="nonzero"></path></clipPath><clipPath id="SvgjsClipPath1013"><path d="M 14 14 L 144 14 L 144 17.71875 L 14 17.71875 Z M 14 14 " clip-rule="nonzero"></path></clipPath><clipPath id="SvgjsClipPath1012"><rect x="0" width="181" y="0" height="18"></rect></clipPath></defs><g clip-path="url(#49198efd4c)"><g clip-path="url(#1a8ceb2211)"><g transform="matrix(1, 0, 0, 1, 2, 0)"><g clip-path="url(#621ec34a4f)"><g clip-path="url(#f46b07fd2e)"><g clip-path="url(#eda9347880)"><rect x="-101" width="648" fill="#facc15" height="647.999977" y="-98.999996" fill-opacity="1"></rect></g></g></g></g></g></g><g clip-path="url(#352feabfe3)"><g clip-path="url(#06ff84884e)"><path stroke-linecap="butt" transform="matrix(0.75, 0, 0, 0.75, 0.00590098, 0)" fill="none" stroke-linejoin="miter" d="M 393.815105 15.09896 L 408.664065 20.526045 C 436.007819 30.515629 461.414072 45.166673 483.757826 63.828134 L 495.903661 73.979177 C 518.242206 92.63543 537.122417 115.08335 551.674502 140.291687 L 560.174503 155.015647 C 574.726589 180.223984 584.731798 207.791696 589.726591 236.463575 L 592.429716 251.958369 C 597.429717 280.640665 597.45055 309.968794 592.497424 338.661506 L 589.658882 355.067759 C 584.710965 383.744846 574.664089 411.296933 560.002628 436.432354 L 551.841169 450.416731 C 537.1745 475.562567 518.247414 497.968821 495.903661 516.630282 L 483.757826 526.781325 C 461.414072 545.442786 436.007819 560.093829 408.664065 570.083414 L 393.815105 575.510498 C 366.476559 585.500083 337.596347 590.609459 308.492176 590.609459 L 291.492173 590.609459 C 262.388003 590.609459 233.50779 585.500083 206.169245 575.510498 L 191.320284 570.083414 C 163.97653 560.093829 138.570277 545.442786 116.226524 526.781325 L 104.080688 516.630282 C 81.736935 497.968821 62.809849 475.562567 48.143181 450.416731 L 39.981721 436.432354 C 25.320261 411.296933 15.273384 383.744846 10.325467 355.067759 L 7.486925 338.661506 C 2.533799 309.968794 2.554632 280.640665 7.554633 251.958369 L 10.257758 236.463575 C 15.252551 207.791696 25.257761 180.223984 39.809846 155.015647 L 48.309847 140.291687 C 62.861933 115.08335 81.742144 92.63543 104.080688 73.979177 L 116.226524 63.828134 C 138.570277 45.166673 163.97653 30.515629 191.320284 20.526045 L 206.169245 15.09896 C 233.50779 5.109376 262.388003 0 291.492173 0 L 308.492176 0 C 337.596347 0 366.476559 5.109376 393.815105 15.09896 Z M 393.815105 15.09896 " stroke="#11353d" stroke-width="16" stroke-opacity="1" stroke-miterlimit="4"></path></g></g><g transform="matrix(1, 0, 0, 1, 102, 106)"><g clip-path="url(#d4457170a3)"><g fill="#11353d" fill-opacity="1"><g transform="translate(0.948626, 198.499773)"><g><path d="M 99.125 -87.609375 C 99.457031 -86.816406 99.488281 -85.988281 99.21875 -85.125 C 98.957031 -84.269531 98.429688 -83.675781 97.640625 -83.34375 L 53.6875 -64.796875 L 97.640625 -45.9375 C 99.359375 -45.207031 99.851562 -43.882812 99.125 -41.96875 L 91.890625 -26.390625 C 91.554688 -25.597656 91.007812 -25.101562 90.25 -24.90625 C 89.488281 -24.707031 88.710938 -24.804688 87.921875 -25.203125 L 24.8125 -53.28125 C 23.351562 -53.875 22.625 -54.96875 22.625 -56.5625 L 22.625 -72.9375 C 22.625 -74.582031 23.351562 -75.707031 24.8125 -76.3125 L 87.921875 -104.390625 C 88.710938 -104.785156 89.488281 -104.863281 90.25 -104.625 C 91.007812 -104.394531 91.554688 -103.921875 91.890625 -103.203125 Z M 99.125 -87.609375 "></path></g></g></g><g fill="#11353d" fill-opacity="1"><g transform="translate(122.991793, 198.499773)"><g><path d="M 109.546875 -138.921875 C 110.671875 -138.921875 111.445312 -138.617188 111.875 -138.015625 C 112.300781 -137.421875 112.351562 -136.628906 112.03125 -135.640625 L 43.765625 23.421875 C 43.160156 25.003906 41.96875 25.796875 40.1875 25.796875 L 12.5 25.796875 C 11.445312 25.796875 10.671875 25.5 10.171875 24.90625 C 9.671875 24.3125 9.65625 23.484375 10.125 22.421875 L 78.390625 -136.4375 C 78.648438 -137.226562 79.109375 -137.835938 79.765625 -138.265625 C 80.429688 -138.703125 81.164062 -138.921875 81.96875 -138.921875 Z M 109.546875 -138.921875 "></path></g></g></g></g></g><g transform="matrix(1, 0, 0, 1, 57, 247)"><g clip-path="url(#f96552c0fd)"><g clip-path="url(#369fe7311c)"><path stroke-linecap="round" transform="matrix(0.863551, 0, 0, 0.863551, 0.381482, 0.258047)" fill="none" stroke-linejoin="miter" d="M 2.000917 1.999105 L 190.001093 1.999105 " stroke="#11353d" stroke-width="4" stroke-opacity="1" stroke-miterlimit="4"></path></g><g clip-path="url(#257408ba18)"><path fill="#11353d" d="M 15.925781 14.074219 L 33.195312 14.074219 C 33.425781 14.074219 33.644531 14.117188 33.855469 14.207031 C 34.070312 14.292969 34.253906 14.417969 34.417969 14.582031 C 34.578125 14.742188 34.703125 14.929688 34.792969 15.140625 C 34.878906 15.351562 34.921875 15.574219 34.921875 15.800781 C 34.921875 16.03125 34.878906 16.25 34.792969 16.464844 C 34.703125 16.675781 34.578125 16.859375 34.417969 17.023438 C 34.253906 17.183594 34.070312 17.308594 33.855469 17.398438 C 33.644531 17.484375 33.425781 17.527344 33.195312 17.527344 L 15.925781 17.527344 C 15.695312 17.527344 15.476562 17.484375 15.265625 17.398438 C 15.054688 17.308594 14.867188 17.183594 14.703125 17.023438 C 14.542969 16.859375 14.417969 16.675781 14.328125 16.464844 C 14.242188 16.25 14.199219 16.03125 14.199219 15.800781 C 14.199219 15.574219 14.242188 15.351562 14.328125 15.140625 C 14.417969 14.929688 14.542969 14.742188 14.703125 14.582031 C 14.867188 14.417969 15.054688 14.292969 15.265625 14.207031 C 15.476562 14.117188 15.695312 14.074219 15.925781 14.074219 Z M 40.105469 14.074219 L 57.375 14.074219 C 57.605469 14.074219 57.824219 14.117188 58.035156 14.207031 C 58.25 14.292969 58.433594 14.417969 58.597656 14.582031 C 58.757812 14.742188 58.882812 14.929688 58.972656 15.140625 C 59.058594 15.351562 59.101562 15.574219 59.101562 15.800781 C 59.101562 16.03125 59.058594 16.25 58.972656 16.464844 C 58.882812 16.675781 58.757812 16.859375 58.597656 17.023438 C 58.433594 17.183594 58.25 17.308594 58.035156 17.398438 C 57.824219 17.484375 57.605469 17.527344 57.375 17.527344 L 40.105469 17.527344 C 39.875 17.527344 39.65625 17.484375 39.445312 17.398438 C 39.230469 17.308594 39.046875 17.183594 38.882812 17.023438 C 38.722656 16.859375 38.597656 16.675781 38.507812 16.464844 C 38.421875 16.25 38.378906 16.03125 38.378906 15.800781 C 38.378906 15.574219 38.421875 15.351562 38.507812 15.140625 C 38.597656 14.929688 38.722656 14.742188 38.882812 14.582031 C 39.046875 14.417969 39.230469 14.292969 39.445312 14.207031 C 39.65625 14.117188 39.875 14.074219 40.105469 14.074219 Z M 64.285156 14.074219 L 81.554688 14.074219 C 81.785156 14.074219 82.003906 14.117188 82.214844 14.207031 C 82.429688 14.292969 82.613281 14.417969 82.777344 14.582031 C 82.9375 14.742188 83.0625 14.929688 83.152344 15.140625 C 83.238281 15.351562 83.28125 15.574219 83.28125 15.800781 C 83.28125 16.03125 83.238281 16.25 83.152344 16.464844 C 83.0625 16.675781 82.9375 16.859375 82.777344 17.023438 C 82.613281 17.183594 82.429688 17.308594 82.214844 17.398438 C 82.003906 17.484375 81.785156 17.527344 81.554688 17.527344 L 64.285156 17.527344 C 64.054688 17.527344 63.835938 17.484375 63.625 17.398438 C 63.410156 17.308594 63.226562 17.183594 63.0625 17.023438 C 62.902344 16.859375 62.777344 16.675781 62.6875 16.464844 C 62.601562 16.25 62.558594 16.03125 62.558594 15.800781 C 62.558594 15.574219 62.601562 15.351562 62.6875 15.140625 C 62.777344 14.929688 62.902344 14.742188 63.0625 14.582031 C 63.226562 14.417969 63.410156 14.292969 63.625 14.207031 C 63.835938 14.117188 64.054688 14.074219 64.285156 14.074219 Z M 88.464844 14.074219 L 105.734375 14.074219 C 105.964844 14.074219 106.183594 14.117188 106.394531 14.207031 C 106.605469 14.292969 106.792969 14.417969 106.957031 14.582031 C 107.117188 14.742188 107.242188 14.929688 107.332031 15.140625 C 107.417969 15.351562 107.460938 15.574219 107.460938 15.800781 C 107.460938 16.03125 107.417969 16.25 107.332031 16.464844 C 107.242188 16.675781 107.117188 16.859375 106.957031 17.023438 C 106.792969 17.183594 106.605469 17.308594 106.394531 17.398438 C 106.183594 17.484375 105.964844 17.527344 105.734375 17.527344 L 88.464844 17.527344 C 88.234375 17.527344 88.015625 17.484375 87.800781 17.398438 C 87.589844 17.308594 87.40625 17.183594 87.242188 17.023438 C 87.082031 16.859375 86.957031 16.675781 86.867188 16.464844 C 86.78125 16.25 86.738281 16.03125 86.738281 15.800781 C 86.738281 15.574219 86.78125 15.351562 86.867188 15.140625 C 86.957031 14.929688 87.082031 14.742188 87.242188 14.582031 C 87.40625 14.417969 87.589844 14.292969 87.800781 14.207031 C 88.015625 14.117188 88.234375 14.074219 88.464844 14.074219 Z M 112.644531 14.074219 L 129.914062 14.074219 C 130.144531 14.074219 130.363281 14.117188 130.574219 14.207031 C 130.785156 14.292969 130.972656 14.417969 131.136719 14.582031 C 131.296875 14.742188 131.421875 14.929688 131.507812 15.140625 C 131.597656 15.351562 131.640625 15.574219 131.640625 15.800781 C 131.640625 16.03125 131.597656 16.25 131.507812 16.464844 C 131.421875 16.675781 131.296875 16.859375 131.136719 17.023438 C 130.972656 17.183594 130.785156 17.308594 130.574219 17.398438 C 130.363281 17.484375 130.144531 17.527344 129.914062 17.527344 L 112.644531 17.527344 C 112.414062 17.527344 112.195312 17.484375 111.980469 17.398438 C 111.769531 17.308594 111.582031 17.183594 111.421875 17.023438 C 111.261719 16.859375 111.136719 16.675781 111.046875 16.464844 C 110.960938 16.25 110.914062 16.03125 110.914062 15.800781 C 110.914062 15.574219 110.960938 15.351562 111.046875 15.140625 C 111.136719 14.929688 111.261719 14.742188 111.421875 14.582031 C 111.582031 14.417969 111.769531 14.292969 111.980469 14.207031 C 112.195312 14.117188 112.414062 14.074219 112.644531 14.074219 Z M 136.824219 14.074219 L 154.09375 14.074219 C 154.324219 14.074219 154.542969 14.117188 154.753906 14.207031 C 154.964844 14.292969 155.152344 14.417969 155.316406 14.582031 C 155.476562 14.742188 155.601562 14.929688 155.6875 15.140625 C 155.777344 15.351562 155.820312 15.574219 155.820312 15.800781 C 155.820312 16.03125 155.777344 16.25 155.6875 16.464844 C 155.601562 16.675781 155.476562 16.859375 155.316406 17.023438 C 155.152344 17.183594 154.964844 17.308594 154.753906 17.398438 C 154.542969 17.484375 154.324219 17.527344 154.09375 17.527344 L 136.824219 17.527344 C 136.59375 17.527344 136.375 17.484375 136.160156 17.398438 C 135.949219 17.308594 135.761719 17.183594 135.601562 17.023438 C 135.4375 16.859375 135.316406 16.675781 135.226562 16.464844 C 135.140625 16.25 135.09375 16.03125 135.09375 15.800781 C 135.09375 15.574219 135.140625 15.351562 135.226562 15.140625 C 135.316406 14.929688 135.4375 14.742188 135.601562 14.582031 C 135.761719 14.417969 135.949219 14.292969 136.160156 14.207031 C 136.375 14.117188 136.59375 14.074219 136.824219 14.074219 Z M 161 14.074219 L 178.273438 14.074219 C 178.5 14.074219 178.722656 14.117188 178.933594 14.207031 C 179.144531 14.292969 179.332031 14.417969 179.492188 14.582031 C 179.65625 14.742188 179.78125 14.929688 179.867188 15.140625 C 179.957031 15.351562 180 15.574219 180 15.800781 C 180 16.03125 179.957031 16.25 179.867188 16.464844 C 179.78125 16.675781 179.65625 16.859375 179.492188 17.023438 C 179.332031 17.183594 179.144531 17.308594 178.933594 17.398438 C 178.722656 17.484375 178.5 17.527344 178.273438 17.527344 L 161 17.527344 C 160.773438 17.527344 160.550781 17.484375 160.339844 17.398438 C 160.128906 17.308594 159.941406 17.183594 159.78125 17.023438 C 159.617188 16.859375 159.492188 16.675781 159.40625 16.464844 C 159.320312 16.25 159.273438 16.03125 159.273438 15.800781 C 159.273438 15.574219 159.320312 15.351562 159.40625 15.140625 C 159.492188 14.929688 159.617188 14.742188 159.78125 14.582031 C 159.941406 14.417969 160.128906 14.292969 160.339844 14.207031 C 160.550781 14.117188 160.773438 14.074219 161 14.074219 Z M 161 14.074219 " fill-opacity="1" fill-rule="nonzero"></path></g><g clip-path="url(#ec2344ef64)"><path stroke-linecap="round" transform="matrix(0.863551, 0.000000000000000329, -0.000000000000000329, 0.863551, 14.198294, 14.074863)" fill="none" stroke-linejoin="miter" d="M 2.000448 1.998631 L 147.407575 1.998631 " stroke="#11353d" stroke-width="4" stroke-opacity="1" stroke-miterlimit="4"></path></g></g></g></svg><style>@media (prefers-color-scheme: light) { :root { filter: none; } }
@media (prefers-color-scheme: dark) { :root { filter: none; } }
</style></svg>